<svg width="110" height="137" viewBox="0 0 110 137" fill="none" xmlns="http://www.w3.org/2000/svg">
<rect x="0.5" width="8" height="1" transform="rotate(30 0.5 0)" fill="#ECB22E"/>
<rect x="0.5" y="14.658" width="8" height="1" transform="rotate(30 0.5 14.658)" fill="#ECB22E"/>
<rect x="0.5" y="29.316" width="8" height="1" transform="rotate(30 0.5 29.316)" fill="#ECB22E"/>
<rect x="0.5" y="43.974" width="8" height="1" transform="rotate(30 0.5 43.974)" fill="#ECB22E"/>
<rect x="0.5" y="58.632" width="8" height="1" transform="rotate(30 0.5 58.632)" fill="#ECB22E"/>
<rect x="0.5" y="73.2899" width="8" height="1" transform="rotate(30 0.5 73.2899)" fill="#ECB22E"/>
<rect x="0.5" y="87.9479" width="8" height="1" transform="rotate(30 0.5 87.9479)" fill="#ECB22E"/>
<rect x="0.5" y="102.606" width="8" height="1" transform="rotate(30 0.5 102.606)" fill="#ECB22E"/>
<rect x="0.5" y="117.264" width="8" height="1" transform="rotate(30 0.5 117.264)" fill="#ECB22E"/>
<rect x="0.5" y="131.922" width="8" height="1" transform="rotate(30 0.5 131.922)" fill="#ECB22E"/>
<rect x="17.269" width="8" height="1" transform="rotate(30 17.269 0)" fill="#ECB22E"/>
<rect x="17.269" y="14.658" width="8" height="1" transform="rotate(30 17.269 14.658)" fill="#ECB22E"/>
<rect x="17.269" y="29.316" width="8" height="1" transform="rotate(30 17.269 29.316)" fill="#ECB22E"/>
<rect x="17.269" y="43.974" width="8" height="1" transform="rotate(30 17.269 43.974)" fill="#ECB22E"/>
<rect x="17.269" y="58.632" width="8" height="1" transform="rotate(30 17.269 58.632)" fill="#ECB22E"/>
<rect x="17.269" y="73.2899" width="8" height="1" transform="rotate(30 17.269 73.2899)" fill="#ECB22E"/>
<rect x="17.269" y="87.9479" width="8" height="1" transform="rotate(30 17.269 87.9479)" fill="#ECB22E"/>
<rect x="17.269" y="102.606" width="8" height="1" transform="rotate(30 17.269 102.606)" fill="#ECB22E"/>
<rect x="17.269" y="117.264" width="8" height="1" transform="rotate(30 17.269 117.264)" fill="#ECB22E"/>
<rect x="17.269" y="131.922" width="8" height="1" transform="rotate(30 17.269 131.922)" fill="#ECB22E"/>
<rect x="17.269" width="8" height="1" transform="rotate(30 17.269 0)" fill="#ECB22E"/>
<rect x="17.269" y="14.658" width="8" height="1" transform="rotate(30 17.269 14.658)" fill="#ECB22E"/>
<rect x="17.269" y="29.316" width="8" height="1" transform="rotate(30 17.269 29.316)" fill="#ECB22E"/>
<rect x="17.269" y="43.974" width="8" height="1" transform="rotate(30 17.269 43.974)" fill="#ECB22E"/>
<rect x="17.269" y="58.632" width="8" height="1" transform="rotate(30 17.269 58.632)" fill="#ECB22E"/>
<rect x="17.269" y="73.2899" width="8" height="1" transform="rotate(30 17.269 73.2899)" fill="#ECB22E"/>
<rect x="17.269" y="87.9479" width="8" height="1" transform="rotate(30 17.269 87.9479)" fill="#ECB22E"/>
<rect x="17.269" y="102.606" width="8" height="1" transform="rotate(30 17.269 102.606)" fill="#ECB22E"/>
<rect x="17.269" y="117.264" width="8" height="1" transform="rotate(30 17.269 117.264)" fill="#ECB22E"/>
<rect x="17.269" y="131.922" width="8" height="1" transform="rotate(30 17.269 131.922)" fill="#ECB22E"/>
<rect x="17.269" width="8" height="1" transform="rotate(30 17.269 0)" fill="#ECB22E"/>
<rect x="17.269" y="14.658" width="8" height="1" transform="rotate(30 17.269 14.658)" fill="#ECB22E"/>
<rect x="17.269" y="29.316" width="8" height="1" transform="rotate(30 17.269 29.316)" fill="#ECB22E"/>
<rect x="17.269" y="43.974" width="8" height="1" transform="rotate(30 17.269 43.974)" fill="#ECB22E"/>
<rect x="17.269" y="58.632" width="8" height="1" transform="rotate(30 17.269 58.632)" fill="#ECB22E"/>
<rect x="17.269" y="73.2899" width="8" height="1" transform="rotate(30 17.269 73.2899)" fill="#ECB22E"/>
<rect x="17.269" y="87.9479" width="8" height="1" transform="rotate(30 17.269 87.9479)" fill="#ECB22E"/>
<rect x="17.269" y="102.606" width="8" height="1" transform="rotate(30 17.269 102.606)" fill="#ECB22E"/>
<rect x="17.269" y="117.264" width="8" height="1" transform="rotate(30 17.269 117.264)" fill="#ECB22E"/>
<rect x="17.269" y="131.922" width="8" height="1" transform="rotate(30 17.269 131.922)" fill="#ECB22E"/>
<rect x="34.269" width="8" height="1" transform="rotate(30 34.269 0)" fill="#ECB22E"/>
<rect x="34.269" y="14.658" width="8" height="1" transform="rotate(30 34.269 14.658)" fill="#ECB22E"/>
<rect x="34.269" y="29.316" width="8" height="1" transform="rotate(30 34.269 29.316)" fill="#ECB22E"/>
<rect x="34.269" y="43.974" width="8" height="1" transform="rotate(30 34.269 43.974)" fill="#ECB22E"/>
<rect x="34.269" y="58.632" width="8" height="1" transform="rotate(30 34.269 58.632)" fill="#ECB22E"/>
<rect x="34.269" y="73.2899" width="8" height="1" transform="rotate(30 34.269 73.2899)" fill="#ECB22E"/>
<rect x="34.269" y="87.9479" width="8" height="1" transform="rotate(30 34.269 87.9479)" fill="#ECB22E"/>
<rect x="34.269" y="102.606" width="8" height="1" transform="rotate(30 34.269 102.606)" fill="#ECB22E"/>
<rect x="34.269" y="117.264" width="8" height="1" transform="rotate(30 34.269 117.264)" fill="#ECB22E"/>
<rect x="34.269" y="131.922" width="8" height="1" transform="rotate(30 34.269 131.922)" fill="#ECB22E"/>
<rect x="51.269" width="8" height="1" transform="rotate(30 51.269 0)" fill="#ECB22E"/>
<rect x="51.269" y="14.658" width="8" height="1" transform="rotate(30 51.269 14.658)" fill="#ECB22E"/>
<rect x="51.269" y="29.316" width="8" height="1" transform="rotate(30 51.269 29.316)" fill="#ECB22E"/>
<rect x="51.269" y="43.974" width="8" height="1" transform="rotate(30 51.269 43.974)" fill="#ECB22E"/>
<rect x="51.269" y="58.632" width="8" height="1" transform="rotate(30 51.269 58.632)" fill="#ECB22E"/>
<rect x="51.269" y="73.2899" width="8" height="1" transform="rotate(30 51.269 73.2899)" fill="#ECB22E"/>
<rect x="51.269" y="87.9479" width="8" height="1" transform="rotate(30 51.269 87.9479)" fill="#ECB22E"/>
<rect x="51.269" y="102.606" width="8" height="1" transform="rotate(30 51.269 102.606)" fill="#ECB22E"/>
<rect x="51.269" y="117.264" width="8" height="1" transform="rotate(30 51.269 117.264)" fill="#ECB22E"/>
<rect x="51.269" y="131.922" width="8" height="1" transform="rotate(30 51.269 131.922)" fill="#ECB22E"/>
<rect x="68.269" width="8" height="1" transform="rotate(30 68.269 0)" fill="#ECB22E"/>
<rect x="68.269" y="14.658" width="8" height="1" transform="rotate(30 68.269 14.658)" fill="#ECB22E"/>
<rect x="68.269" y="29.316" width="8" height="1" transform="rotate(30 68.269 29.316)" fill="#ECB22E"/>
<rect x="68.269" y="43.974" width="8" height="1" transform="rotate(30 68.269 43.974)" fill="#ECB22E"/>
<rect x="68.269" y="58.632" width="8" height="1" transform="rotate(30 68.269 58.632)" fill="#ECB22E"/>
<rect x="68.269" y="73.2899" width="8" height="1" transform="rotate(30 68.269 73.2899)" fill="#ECB22E"/>
<rect x="68.269" y="87.9479" width="8" height="1" transform="rotate(30 68.269 87.9479)" fill="#ECB22E"/>
<rect x="68.269" y="102.606" width="8" height="1" transform="rotate(30 68.269 102.606)" fill="#ECB22E"/>
<rect x="68.269" y="117.264" width="8" height="1" transform="rotate(30 68.269 117.264)" fill="#ECB22E"/>
<rect x="68.269" y="131.922" width="8" height="1" transform="rotate(30 68.269 131.922)" fill="#ECB22E"/>
<rect x="85.269" width="8" height="1" transform="rotate(30 85.269 0)" fill="#ECB22E"/>
<rect x="85.269" y="14.658" width="8" height="1" transform="rotate(30 85.269 14.658)" fill="#ECB22E"/>
<rect x="85.269" y="29.316" width="8" height="1" transform="rotate(30 85.269 29.316)" fill="#ECB22E"/>
<rect x="85.269" y="43.974" width="8" height="1" transform="rotate(30 85.269 43.974)" fill="#ECB22E"/>
<rect x="85.269" y="58.632" width="8" height="1" transform="rotate(30 85.269 58.632)" fill="#ECB22E"/>
<rect x="85.269" y="73.2899" width="8" height="1" transform="rotate(30 85.269 73.2899)" fill="#ECB22E"/>
<rect x="85.269" y="87.9479" width="8" height="1" transform="rotate(30 85.269 87.9479)" fill="#ECB22E"/>
<rect x="85.269" y="102.606" width="8" height="1" transform="rotate(30 85.269 102.606)" fill="#ECB22E"/>
<rect x="85.269" y="117.264" width="8" height="1" transform="rotate(30 85.269 117.264)" fill="#ECB22E"/>
<rect x="85.269" y="131.922" width="8" height="1" transform="rotate(30 85.269 131.922)" fill="#ECB22E"/>
<rect x="102.269" width="8" height="1" transform="rotate(30 102.269 0)" fill="#ECB22E"/>
<rect x="102.269" y="14.658" width="8" height="1" transform="rotate(30 102.269 14.658)" fill="#ECB22E"/>
<rect x="102.269" y="29.316" width="8" height="1" transform="rotate(30 102.269 29.316)" fill="#ECB22E"/>
<rect x="102.269" y="43.974" width="8" height="1" transform="rotate(30 102.269 43.974)" fill="#ECB22E"/>
<rect x="102.269" y="58.632" width="8" height="1" transform="rotate(30 102.269 58.632)" fill="#ECB22E"/>
<rect x="102.269" y="73.2899" width="8" height="1" transform="rotate(30 102.269 73.2899)" fill="#ECB22E"/>
<rect x="102.269" y="87.9479" width="8" height="1" transform="rotate(30 102.269 87.9479)" fill="#ECB22E"/>
<rect x="102.269" y="102.606" width="8" height="1" transform="rotate(30 102.269 102.606)" fill="#ECB22E"/>
<rect x="102.269" y="117.264" width="8" height="1" transform="rotate(30 102.269 117.264)" fill="#ECB22E"/>
<rect x="102.269" y="131.922" width="8" height="1" transform="rotate(30 102.269 131.922)" fill="#ECB22E"/>
</svg>
