<svg width="79" height="79" viewBox="0 0 79 79" fill="none" xmlns="http://www.w3.org/2000/svg">
<g clip-path="url(#clip0)">
<path d="M42.1417 2.74048C41.2776 2.74048 40.4136 2.74048 39.5001 2.74048C32.0981 2.76434 24.8748 5.01631 18.7706 9.20316C12.6664 13.39 7.96429 19.3178 5.27643 26.2146C2.58857 33.1114 2.03952 40.6577 3.70077 47.8709C5.36203 55.0841 9.15661 61.6301 14.5904 66.6564C15.0329 65.3365 15.5863 64.0565 16.2445 62.8298C18.4723 58.5911 21.8163 55.0419 25.9151 52.5661C30.014 50.0903 34.7116 48.782 39.5001 48.7827C40.3889 48.7827 41.2529 48.7827 42.1417 48.9061C47.1544 49.4208 51.9136 51.3652 55.8528 54.5077C59.7919 57.6503 62.745 61.8586 64.3604 66.6317C65.6619 65.4543 66.8672 64.1747 67.9648 62.8052C72.2368 57.5854 74.9935 51.2927 75.9342 44.6135C76.8749 37.9343 75.9635 31.1251 73.2994 24.9284C70.6353 18.7317 66.3208 13.3855 60.8265 9.47289C55.3321 5.56027 48.8689 3.23148 42.1417 2.74048V2.74048Z" fill="#F6F4F2"/>
<path d="M42.1664 13.43C41.2903 13.2416 40.3962 13.1505 39.5001 13.1584C36.007 13.1584 32.657 14.5461 30.187 17.0161C27.717 19.4861 26.3293 22.8361 26.3293 26.3292C26.3293 29.8223 27.717 33.1724 30.187 35.6424C32.657 38.1124 36.007 39.5 39.5001 39.5C40.3797 39.5043 41.2571 39.4133 42.117 39.2285C45.0757 38.6043 47.7299 36.982 49.6347 34.6335C51.5394 32.285 52.5789 29.3531 52.5789 26.3292C52.5789 23.3054 51.5394 20.3735 49.6347 18.025C47.7299 15.6765 45.0757 14.0542 42.117 13.43H42.1664Z" fill="#ECB22E"/>
<path d="M42.1416 48.9306C41.2775 48.9306 40.4135 48.8071 39.5 48.8071C34.0041 48.8087 28.6466 50.5309 24.1792 53.732C19.7118 56.9331 16.3587 61.4526 14.5903 66.6562C21.3804 72.9039 30.273 76.3675 39.5 76.3584H42.1416C50.4215 75.7651 58.2549 72.3793 64.3603 66.7549C62.7605 61.9634 59.8142 57.7342 55.8739 54.5732C51.9336 51.4122 47.166 49.4532 42.1416 48.9306V48.9306Z" fill="#ECB22E"/>
<path d="M39.4999 42.1415C35.3235 42.0966 31.3307 40.4175 28.3774 37.4641C25.424 34.5107 23.7449 30.518 23.7 26.3415C23.7449 22.165 25.424 18.1723 28.3774 15.2189C31.3307 12.2655 35.3235 10.5865 39.4999 10.5415C43.6904 10.5415 47.7092 12.2061 50.6722 15.1692C53.6353 18.1323 55.2999 22.1511 55.2999 26.3415C55.2999 30.5319 53.6353 34.5507 50.6722 37.5138C47.7092 40.4769 43.6904 42.1415 39.4999 42.1415V42.1415ZM37.2287 36.6362C37.9743 36.8023 38.7361 36.8851 39.4999 36.8831C40.8843 36.8831 42.2551 36.6104 43.534 36.0806C44.813 35.5509 45.9751 34.7744 46.954 33.7955C47.9328 32.8166 48.7093 31.6545 49.2391 30.3756C49.7688 29.0966 50.0415 27.7258 50.0415 26.3415C50.0415 24.9572 49.7688 23.5864 49.2391 22.3074C48.7093 21.0285 47.9328 19.8664 46.954 18.8875C45.9751 17.9086 44.813 17.1321 43.534 16.6024C42.2551 16.0726 40.8843 15.7999 39.4999 15.7999C36.9014 15.7991 34.3941 16.7582 32.4594 18.4929C30.5246 20.2277 29.2988 22.6159 29.0172 25.1992C28.7357 27.7825 29.4181 30.3787 30.9337 32.4895C32.4492 34.6004 34.691 36.0771 37.2287 36.6362V36.6362Z" fill="#181818"/>
<path d="M39.5 5.77794e-05C38.5125 5.77794e-05 37.5744 5.77794e-05 36.6856 5.77794e-05C28.9728 0.538797 21.5878 3.32918 15.4458 8.02531C9.30388 12.7214 4.67516 19.1168 2.13345 26.4186C-0.40826 33.7205 -0.751198 41.6077 1.14715 49.1026C3.04549 56.5974 7.10164 63.3704 12.8128 68.5819C13.1383 68.8696 13.5292 69.0733 13.9514 69.1754C14.3737 69.2775 14.8144 69.275 15.2354 69.1679C15.6564 69.0608 16.0449 68.8525 16.367 68.5611C16.6891 68.2696 16.9352 67.9039 17.0837 67.4957C18.3814 63.6386 20.6523 60.1817 23.6769 57.4591C26.7016 54.7366 30.3775 52.8405 34.3493 51.9543C38.3211 51.0681 42.4544 51.2217 46.3495 52.4003C50.2445 53.5789 53.7696 55.7427 56.5837 58.6822C57.0787 59.1371 57.7285 59.3862 58.4007 59.3787C59.0729 59.3712 59.7169 59.1077 60.2016 58.6419C60.6863 58.1761 60.9752 57.543 61.0093 56.8716C61.0435 56.2003 60.8205 55.5411 60.3856 55.0285C57.1877 51.689 53.2354 49.1654 48.8604 47.6693C44.4854 46.1732 39.8154 45.7483 35.2422 46.4303C30.6691 47.1122 26.3262 48.8812 22.5781 51.5887C18.83 54.2962 15.786 57.8632 13.7015 61.9904C9.51718 57.1977 6.75193 51.3332 5.7164 45.0557C4.68087 38.7783 5.41607 32.3364 7.83942 26.4537C10.2628 20.571 14.2783 15.4804 19.435 11.7538C24.5916 8.02712 30.6852 5.81202 37.0312 5.35725H39.5C48.5623 5.36372 57.2531 8.95983 63.6704 15.3586C70.0877 21.7574 73.7089 30.4378 73.7415 39.5001C73.7415 58.781 56.4603 75.4204 37.0806 73.6429C33.318 73.3652 29.6249 72.4815 26.144 71.026C25.4893 70.7543 24.7534 70.7538 24.0983 71.0246C23.4432 71.2955 22.9225 71.8155 22.6508 72.4702C22.379 73.125 22.3785 73.8608 22.6494 74.516C22.9202 75.1711 23.4402 75.6918 24.095 75.9635C28.0846 77.6445 32.3196 78.6699 36.6362 79.0001C42.0168 79.4141 47.4249 78.7135 52.5223 76.9421C57.6197 75.1708 62.2969 72.3667 66.2612 68.7054C67.0759 67.9401 67.8906 67.1501 68.73 66.2366C73.9316 60.58 77.3703 53.5289 78.6246 45.9473C79.879 38.3657 78.8946 30.5829 75.792 23.5523C72.6895 16.5218 67.6035 10.5489 61.1573 6.36557C54.7111 2.1822 47.1846 -0.029982 39.5 5.77794e-05V5.77794e-05Z" fill="#181818"/>
</g>
<defs>
<clipPath id="clip0">
<rect width="79" height="79" fill="white"/>
</clipPath>
</defs>
</svg>
