<svg width="34" height="17" viewBox="0 0 34 17" fill="none" xmlns="http://www.w3.org/2000/svg">
<path d="M0.222042 8.76594L7.8539 16.2204C8.12805 16.5331 8.60985 16.5695 8.92998 16.3017C9.25011 16.0339 9.28743 15.5633 9.01321 15.2506C8.98763 15.2215 8.95982 15.1942 8.92998 15.1693L2.60317 8.98215L32.8179 8.98215C33.2393 8.98215 33.5811 8.64839 33.5811 8.23667C33.5811 7.82495 33.2393 7.49125 32.8179 7.49125L2.60317 7.49125L8.92998 1.31157C9.25011 1.04379 9.28743 0.573196 9.01321 0.260513C8.739 -0.052171 8.25726 -0.0886208 7.93713 0.17922C7.90729 0.204204 7.87942 0.231365 7.8539 0.260512L0.221976 7.71495C-0.0738851 8.00559 -0.0738847 8.47517 0.222042 8.76594Z" fill="white"/>
</svg>
