<svg width="17" height="16" viewBox="0 0 17 16" fill="none" xmlns="http://www.w3.org/2000/svg">
<path fill-rule="evenodd" clip-rule="evenodd" d="M16.3833 5.78789L11.0555 5.01382L8.67381 0.186115C8.60601 0.0708054 8.48223 0 8.34847 0C8.2147 0 8.09093 0.0708054 8.02313 0.186115L5.6403 5.01273L0.311069 5.78789C0.174365 5.80762 0.0607138 5.90324 0.0178921 6.03456C-0.0249296 6.16587 0.010503 6.31011 0.109295 6.40664L3.9655 10.1649L3.05534 15.4712C3.03212 15.6073 3.08806 15.7447 3.19969 15.8259C3.31132 15.907 3.45932 15.9178 3.58155 15.8537L8.3472 13.3486L13.1128 15.8526C13.2351 15.9167 13.3831 15.9059 13.4947 15.8248C13.6063 15.7436 13.6623 15.6062 13.6391 15.4701L12.7289 10.1649L16.5851 6.40664C16.6839 6.31016 16.7193 6.16599 16.6766 6.0347C16.6339 5.9034 16.5203 5.80773 16.3837 5.78789H16.3833Z" fill="#F5A623"/>
</svg>
