<svg width="98" height="98" viewBox="0 0 98 98" fill="none" xmlns="http://www.w3.org/2000/svg">
<path d="M42.875 85.75C22.6114 85.75 6.125 69.2636 6.125 49C6.125 28.7364 22.6114 12.25 42.875 12.25C63.1386 12.25 79.625 28.7364 79.625 49C79.625 69.2636 63.1386 85.75 42.875 85.75Z" fill="#F95252"/>
<path d="M42.875 73.5C29.3659 73.5 18.375 62.5091 18.375 49C18.375 35.4909 29.3659 24.5 42.875 24.5C56.3841 24.5 67.375 35.4909 67.375 49C67.375 62.5091 56.3841 73.5 42.875 73.5Z" fill="#F6F4F2"/>
<path d="M42.875 58.1875C47.9491 58.1875 52.0625 54.0741 52.0625 49C52.0625 43.9259 47.9491 39.8125 42.875 39.8125C37.8009 39.8125 33.6875 43.9259 33.6875 49C33.6875 54.0741 37.8009 58.1875 42.875 58.1875Z" fill="#F95252"/>
<path d="M90.0806 49L94.0403 45.0403C95.2366 43.844 95.2366 41.906 94.0403 40.7097C92.844 39.5134 90.906 39.5134 89.7097 40.7097L84.4819 45.9375H82.532C80.9589 25.4137 63.7951 9.1875 42.875 9.1875C20.9216 9.1875 3.0625 27.0466 3.0625 49C3.0625 70.9534 20.9216 88.8125 42.875 88.8125C63.7951 88.8125 80.9589 72.5863 82.532 52.0625H84.4819L89.7097 57.2903C90.3079 57.8884 91.0914 58.1875 91.875 58.1875C92.6586 58.1875 93.4421 57.8884 94.0403 57.2903C95.2366 56.094 95.2366 54.156 94.0403 52.9597L90.0806 49ZM42.875 82.6875C24.2996 82.6875 9.1875 67.5754 9.1875 49C9.1875 30.4246 24.2996 15.3125 42.875 15.3125C60.4171 15.3125 74.8533 28.7947 76.407 45.9375H70.2566C68.7268 32.1772 57.0361 21.4375 42.875 21.4375C27.6776 21.4375 15.3125 33.8026 15.3125 49C15.3125 64.1974 27.6776 76.5625 42.875 76.5625C57.0361 76.5625 68.7268 65.8228 70.2566 52.0625H76.407C74.8533 69.2053 60.4171 82.6875 42.875 82.6875ZM54.6898 45.9375C53.3201 40.6693 48.5663 36.75 42.875 36.75C36.1205 36.75 30.625 42.2455 30.625 49C30.625 55.7545 36.1205 61.25 42.875 61.25C48.5663 61.25 53.3201 57.3307 54.6898 52.0625H64.0673C62.5749 62.4343 53.6536 70.4375 42.875 70.4375C31.0542 70.4375 21.4375 60.8208 21.4375 49C21.4375 37.1792 31.0542 27.5625 42.875 27.5625C53.6536 27.5625 62.5749 35.5657 64.0673 45.9375H54.6898ZM42.875 52.0625H48.1476C47.0859 53.8839 45.133 55.125 42.875 55.125C39.497 55.125 36.75 52.378 36.75 49C36.75 45.622 39.497 42.875 42.875 42.875C45.133 42.875 47.0859 44.1161 48.1476 45.9375H42.875C41.1837 45.9375 39.8125 47.3087 39.8125 49C39.8125 50.6913 41.1837 52.0625 42.875 52.0625Z" fill="#181818"/>
</svg>
