<svg width="34" height="17" viewBox="0 0 34 17" fill="none" xmlns="http://www.w3.org/2000/svg">
<path d="M33.778 7.87444L26.1461 0.420002C25.8719 0.107319 25.3901 0.0708682 25.07 0.338709C24.7499 0.606485 24.7126 1.07708 24.9868 1.38976C25.0124 1.41891 25.0402 1.44614 25.07 1.47106L31.3968 7.65823H1.18211C0.760652 7.65823 0.418945 7.99199 0.418945 8.40371C0.418945 8.81544 0.760652 9.14913 1.18211 9.14913H31.3968L25.07 15.3288C24.7499 15.5966 24.7126 16.0672 24.9868 16.3799C25.261 16.6926 25.7427 16.729 26.0629 16.4612C26.0927 16.4362 26.1206 16.409 26.1461 16.3799L33.778 8.92543C34.0739 8.63478 34.0739 8.16521 33.778 7.87444Z" fill="white"/>
</svg>
