<svg width="127" height="137" viewBox="0 0 127 137" fill="none" xmlns="http://www.w3.org/2000/svg">
<rect x="0.5" width="8" height="1" transform="rotate(30 0.5 0)" fill="#F95252"/>
<rect x="0.5" y="14.658" width="8" height="1" transform="rotate(30 0.5 14.658)" fill="#F95252"/>
<rect x="0.5" y="29.3159" width="8" height="1" transform="rotate(30 0.5 29.3159)" fill="#F95252"/>
<rect x="0.5" y="43.9739" width="8" height="1" transform="rotate(30 0.5 43.9739)" fill="#F95252"/>
<rect x="0.5" y="58.6318" width="8" height="1" transform="rotate(30 0.5 58.6318)" fill="#F95252"/>
<rect x="0.5" y="73.29" width="8" height="1" transform="rotate(30 0.5 73.29)" fill="#F95252"/>
<rect x="0.5" y="87.948" width="8" height="1" transform="rotate(30 0.5 87.948)" fill="#F95252"/>
<rect x="0.5" y="102.606" width="8" height="1" transform="rotate(30 0.5 102.606)" fill="#F95252"/>
<rect x="0.5" y="117.264" width="8" height="1" transform="rotate(30 0.5 117.264)" fill="#F95252"/>
<rect x="0.5" y="131.922" width="8" height="1" transform="rotate(30 0.5 131.922)" fill="#F95252"/>
<rect x="17.269" width="8" height="1" transform="rotate(30 17.269 0)" fill="#F95252"/>
<rect x="17.269" y="14.658" width="8" height="1" transform="rotate(30 17.269 14.658)" fill="#F95252"/>
<rect x="17.269" y="29.3159" width="8" height="1" transform="rotate(30 17.269 29.3159)" fill="#F95252"/>
<rect x="17.269" y="43.9739" width="8" height="1" transform="rotate(30 17.269 43.9739)" fill="#F95252"/>
<rect x="17.269" y="58.6318" width="8" height="1" transform="rotate(30 17.269 58.6318)" fill="#F95252"/>
<rect x="17.269" y="73.29" width="8" height="1" transform="rotate(30 17.269 73.29)" fill="#F95252"/>
<rect x="17.269" y="87.948" width="8" height="1" transform="rotate(30 17.269 87.948)" fill="#F95252"/>
<rect x="17.269" y="102.606" width="8" height="1" transform="rotate(30 17.269 102.606)" fill="#F95252"/>
<rect x="17.269" y="117.264" width="8" height="1" transform="rotate(30 17.269 117.264)" fill="#F95252"/>
<rect x="17.269" y="131.922" width="8" height="1" transform="rotate(30 17.269 131.922)" fill="#F95252"/>
<rect x="17.269" width="8" height="1" transform="rotate(30 17.269 0)" fill="#F95252"/>
<rect x="17.269" y="14.658" width="8" height="1" transform="rotate(30 17.269 14.658)" fill="#F95252"/>
<rect x="17.269" y="29.3159" width="8" height="1" transform="rotate(30 17.269 29.3159)" fill="#F95252"/>
<rect x="17.269" y="43.9739" width="8" height="1" transform="rotate(30 17.269 43.9739)" fill="#F95252"/>
<rect x="17.269" y="58.6318" width="8" height="1" transform="rotate(30 17.269 58.6318)" fill="#F95252"/>
<rect x="17.269" y="73.29" width="8" height="1" transform="rotate(30 17.269 73.29)" fill="#F95252"/>
<rect x="17.269" y="87.948" width="8" height="1" transform="rotate(30 17.269 87.948)" fill="#F95252"/>
<rect x="17.269" y="102.606" width="8" height="1" transform="rotate(30 17.269 102.606)" fill="#F95252"/>
<rect x="17.269" y="117.264" width="8" height="1" transform="rotate(30 17.269 117.264)" fill="#F95252"/>
<rect x="17.269" y="131.922" width="8" height="1" transform="rotate(30 17.269 131.922)" fill="#F95252"/>
<rect x="17.269" width="8" height="1" transform="rotate(30 17.269 0)" fill="#F95252"/>
<rect x="17.269" y="14.658" width="8" height="1" transform="rotate(30 17.269 14.658)" fill="#F95252"/>
<rect x="17.269" y="29.3159" width="8" height="1" transform="rotate(30 17.269 29.3159)" fill="#F95252"/>
<rect x="17.269" y="43.9739" width="8" height="1" transform="rotate(30 17.269 43.9739)" fill="#F95252"/>
<rect x="17.269" y="58.6318" width="8" height="1" transform="rotate(30 17.269 58.6318)" fill="#F95252"/>
<rect x="17.269" y="73.29" width="8" height="1" transform="rotate(30 17.269 73.29)" fill="#F95252"/>
<rect x="17.269" y="87.948" width="8" height="1" transform="rotate(30 17.269 87.948)" fill="#F95252"/>
<rect x="17.269" y="102.606" width="8" height="1" transform="rotate(30 17.269 102.606)" fill="#F95252"/>
<rect x="17.269" y="117.264" width="8" height="1" transform="rotate(30 17.269 117.264)" fill="#F95252"/>
<rect x="17.269" y="131.922" width="8" height="1" transform="rotate(30 17.269 131.922)" fill="#F95252"/>
<rect x="34.269" width="8" height="1" transform="rotate(30 34.269 0)" fill="#F95252"/>
<rect x="34.269" y="14.658" width="8" height="1" transform="rotate(30 34.269 14.658)" fill="#F95252"/>
<rect x="34.269" y="29.3159" width="8" height="1" transform="rotate(30 34.269 29.3159)" fill="#F95252"/>
<rect x="34.269" y="43.9739" width="8" height="1" transform="rotate(30 34.269 43.9739)" fill="#F95252"/>
<rect x="34.269" y="58.6318" width="8" height="1" transform="rotate(30 34.269 58.6318)" fill="#F95252"/>
<rect x="34.269" y="73.29" width="8" height="1" transform="rotate(30 34.269 73.29)" fill="#F95252"/>
<rect x="34.269" y="87.948" width="8" height="1" transform="rotate(30 34.269 87.948)" fill="#F95252"/>
<rect x="34.269" y="102.606" width="8" height="1" transform="rotate(30 34.269 102.606)" fill="#F95252"/>
<rect x="34.269" y="117.264" width="8" height="1" transform="rotate(30 34.269 117.264)" fill="#F95252"/>
<rect x="34.269" y="131.922" width="8" height="1" transform="rotate(30 34.269 131.922)" fill="#F95252"/>
<rect x="51.269" width="8" height="1" transform="rotate(30 51.269 0)" fill="#F95252"/>
<rect x="51.269" y="14.658" width="8" height="1" transform="rotate(30 51.269 14.658)" fill="#F95252"/>
<rect x="51.269" y="29.3159" width="8" height="1" transform="rotate(30 51.269 29.3159)" fill="#F95252"/>
<rect x="51.269" y="43.9739" width="8" height="1" transform="rotate(30 51.269 43.9739)" fill="#F95252"/>
<rect x="51.269" y="58.6318" width="8" height="1" transform="rotate(30 51.269 58.6318)" fill="#F95252"/>
<rect x="51.269" y="73.29" width="8" height="1" transform="rotate(30 51.269 73.29)" fill="#F95252"/>
<rect x="51.269" y="87.948" width="8" height="1" transform="rotate(30 51.269 87.948)" fill="#F95252"/>
<rect x="51.269" y="102.606" width="8" height="1" transform="rotate(30 51.269 102.606)" fill="#F95252"/>
<rect x="51.269" y="117.264" width="8" height="1" transform="rotate(30 51.269 117.264)" fill="#F95252"/>
<rect x="51.269" y="131.922" width="8" height="1" transform="rotate(30 51.269 131.922)" fill="#F95252"/>
<rect x="68.269" width="8" height="1" transform="rotate(30 68.269 0)" fill="#F95252"/>
<rect x="68.269" y="14.658" width="8" height="1" transform="rotate(30 68.269 14.658)" fill="#F95252"/>
<rect x="68.269" y="29.3159" width="8" height="1" transform="rotate(30 68.269 29.3159)" fill="#F95252"/>
<rect x="68.269" y="43.9739" width="8" height="1" transform="rotate(30 68.269 43.9739)" fill="#F95252"/>
<rect x="68.269" y="58.6318" width="8" height="1" transform="rotate(30 68.269 58.6318)" fill="#F95252"/>
<rect x="68.269" y="73.29" width="8" height="1" transform="rotate(30 68.269 73.29)" fill="#F95252"/>
<rect x="68.269" y="87.948" width="8" height="1" transform="rotate(30 68.269 87.948)" fill="#F95252"/>
<rect x="68.269" y="102.606" width="8" height="1" transform="rotate(30 68.269 102.606)" fill="#F95252"/>
<rect x="68.269" y="117.264" width="8" height="1" transform="rotate(30 68.269 117.264)" fill="#F95252"/>
<rect x="68.269" y="131.922" width="8" height="1" transform="rotate(30 68.269 131.922)" fill="#F95252"/>
<rect x="85.269" width="8" height="1" transform="rotate(30 85.269 0)" fill="#F95252"/>
<rect x="85.269" y="14.658" width="8" height="1" transform="rotate(30 85.269 14.658)" fill="#F95252"/>
<rect x="85.269" y="29.3159" width="8" height="1" transform="rotate(30 85.269 29.3159)" fill="#F95252"/>
<rect x="85.269" y="43.9739" width="8" height="1" transform="rotate(30 85.269 43.9739)" fill="#F95252"/>
<rect x="85.269" y="58.6318" width="8" height="1" transform="rotate(30 85.269 58.6318)" fill="#F95252"/>
<rect x="85.269" y="73.29" width="8" height="1" transform="rotate(30 85.269 73.29)" fill="#F95252"/>
<rect x="85.269" y="87.948" width="8" height="1" transform="rotate(30 85.269 87.948)" fill="#F95252"/>
<rect x="85.269" y="102.606" width="8" height="1" transform="rotate(30 85.269 102.606)" fill="#F95252"/>
<rect x="85.269" y="117.264" width="8" height="1" transform="rotate(30 85.269 117.264)" fill="#F95252"/>
<rect x="85.269" y="131.922" width="8" height="1" transform="rotate(30 85.269 131.922)" fill="#F95252"/>
<rect x="102.269" width="8" height="1" transform="rotate(30 102.269 0)" fill="#F95252"/>
<rect x="102.269" y="14.658" width="8" height="1" transform="rotate(30 102.269 14.658)" fill="#F95252"/>
<rect x="102.269" y="29.3159" width="8" height="1" transform="rotate(30 102.269 29.3159)" fill="#F95252"/>
<rect x="102.269" y="43.9739" width="8" height="1" transform="rotate(30 102.269 43.9739)" fill="#F95252"/>
<rect x="102.269" y="58.6318" width="8" height="1" transform="rotate(30 102.269 58.6318)" fill="#F95252"/>
<rect x="102.269" y="73.29" width="8" height="1" transform="rotate(30 102.269 73.29)" fill="#F95252"/>
<rect x="102.269" y="87.948" width="8" height="1" transform="rotate(30 102.269 87.948)" fill="#F95252"/>
<rect x="102.269" y="102.606" width="8" height="1" transform="rotate(30 102.269 102.606)" fill="#F95252"/>
<rect x="102.269" y="117.264" width="8" height="1" transform="rotate(30 102.269 117.264)" fill="#F95252"/>
<rect x="102.269" y="131.922" width="8" height="1" transform="rotate(30 102.269 131.922)" fill="#F95252"/>
<rect x="119.269" width="8" height="1" transform="rotate(30 119.269 0)" fill="#F95252"/>
<rect x="119.269" y="14.658" width="8" height="1" transform="rotate(30 119.269 14.658)" fill="#F95252"/>
<rect x="119.269" y="29.3159" width="8" height="1" transform="rotate(30 119.269 29.3159)" fill="#F95252"/>
<rect x="119.269" y="43.9739" width="8" height="1" transform="rotate(30 119.269 43.9739)" fill="#F95252"/>
<rect x="119.269" y="58.6318" width="8" height="1" transform="rotate(30 119.269 58.6318)" fill="#F95252"/>
<rect x="119.269" y="73.29" width="8" height="1" transform="rotate(30 119.269 73.29)" fill="#F95252"/>
<rect x="119.269" y="87.948" width="8" height="1" transform="rotate(30 119.269 87.948)" fill="#F95252"/>
<rect x="119.269" y="102.606" width="8" height="1" transform="rotate(30 119.269 102.606)" fill="#F95252"/>
<rect x="119.269" y="117.264" width="8" height="1" transform="rotate(30 119.269 117.264)" fill="#F95252"/>
<rect x="119.269" y="131.922" width="8" height="1" transform="rotate(30 119.269 131.922)" fill="#F95252"/>
</svg>
