<svg width="93" height="93" viewBox="0 0 93 93" fill="none" xmlns="http://www.w3.org/2000/svg">
<g clip-path="url(#clip0)">
<path d="M39.9609 67.7446L17.7572 89.9629C15.7954 91.9391 13.1798 93.0144 10.4044 93.0144C7.64342 93.0144 5.02779 91.9391 3.05154 89.9774C-1.01721 85.8796 -1.01721 79.2824 3.02248 75.2427L25.2553 53.039C26.3887 51.891 28.2197 51.891 29.3531 53.039L39.9609 63.6468C41.0944 64.7802 41.0944 66.6111 39.9609 67.7446V67.7446Z" fill="#71A78D"/>
<path d="M82.1743 63.051C78.6868 66.5385 74.6326 69.2413 70.2006 71.0722C65.7831 72.9032 61.0023 73.8622 56.0617 73.8622C46.195 73.8622 36.924 70.026 29.949 63.051C15.5486 48.6505 15.5486 25.2116 29.949 10.7966C44.3495 -3.58933 67.7884 -3.60386 82.1889 10.7966C96.5893 25.2116 96.5893 48.6505 82.1743 63.051V63.051Z" fill="#F6F4F2"/>
<path d="M67.8465 22.2473H44.3059C42.6929 22.2473 41.3997 23.5551 41.3997 25.1536V48.7087C41.3997 50.3217 42.6929 51.615 44.3059 51.615H67.8465C69.4595 51.615 70.7528 50.3217 70.7528 48.7087V25.1536C70.7528 23.5551 69.4595 22.2473 67.8465 22.2473V22.2473Z" fill="#71A78D"/>
<path d="M67.8462 22.2473H44.291C42.6926 22.2473 41.3848 23.5551 41.3848 25.1536V48.7087C41.3848 50.3072 42.6926 51.615 44.291 51.615H67.8462C69.4446 51.615 70.7524 50.3072 70.7524 48.7087V25.1536C70.7524 23.5406 69.4446 22.2473 67.8462 22.2473V22.2473ZM64.9399 45.8025H47.1973V28.0598H53.1551V30.5156C53.1551 32.114 54.4629 33.4218 56.0613 33.4218C57.6598 33.4218 58.9676 32.114 58.9676 30.5156V28.0598H64.9399V45.8025Z" fill="#181818"/>
<path d="M82.1886 10.8111C67.7881 -3.58937 44.3492 -3.58937 29.9488 10.8111C18.1058 22.6541 16.0133 40.6147 23.6567 54.6228L3.0369 75.2427C-1.01732 79.2969 -1.01732 85.8941 3.05143 89.9773C5.02768 91.9391 7.6433 93.0144 10.4042 93.0144C13.1797 93.0144 15.7953 91.9391 17.7716 89.9628L38.3624 69.3575C43.7244 72.2928 49.7839 73.8622 56.076 73.8622C65.9427 73.8622 75.2136 70.0259 82.1886 63.0364C96.5891 48.6505 96.5891 25.2116 82.1886 10.8111V10.8111ZM13.6447 85.8505C11.9155 87.5797 8.89299 87.5797 7.14924 85.8505C5.3619 84.0486 5.3619 81.1278 7.14924 79.3405L26.9117 59.578C27.8417 60.7695 28.8444 61.932 29.9488 63.0364C31.0386 64.1263 32.2011 65.1434 33.4072 66.0734L13.6447 85.8505ZM78.0763 58.9386C65.9427 71.0722 46.1947 71.0722 34.0611 58.9386C21.9275 46.805 21.9275 27.057 34.0611 14.9234C40.1206 8.84938 48.0983 5.81234 56.0614 5.81234C64.0245 5.81234 72.0022 8.84938 78.0763 14.9089C90.2099 27.057 90.2099 46.805 78.0763 58.9386Z" fill="#181818"/>
</g>
<defs>
<clipPath id="clip0">
<rect width="93" height="93" fill="white"/>
</clipPath>
</defs>
</svg>
