<svg width="16" height="16" viewBox="0 0 16 16" fill="none" xmlns="http://www.w3.org/2000/svg">
<g clip-path="url(#clip0_966_6)">
<path d="M15.9843 4.70405C15.9468 3.8539 15.8093 3.26944 15.6124 2.76299C15.4092 2.22541 15.0967 1.74411 14.6872 1.34401C14.2871 0.93768 13.8026 0.621947 13.2713 0.421957C12.7619 0.225019 12.1805 0.0875413 11.3303 0.0500586C10.4738 0.00940126 10.2019 0 8.0296 0C5.85733 0 5.58543 0.00940127 4.73211 0.0468841C3.88197 0.0843673 3.29751 0.221967 2.79119 0.418783C2.25348 0.621948 1.77219 0.934507 1.37209 1.34401C0.96576 1.74411 0.650145 2.22859 0.450033 2.75994C0.253095 3.26944 0.115617 3.85073 0.0781346 4.70087C0.0374774 5.55736 0.0280762 5.82927 0.0280762 8.00153C0.0280762 10.1739 0.0374774 10.4457 0.07496 11.2991C0.112443 12.1492 0.250043 12.7337 0.446981 13.2401C0.650145 13.7777 0.96576 14.259 1.37209 14.6591C1.77219 15.0655 2.25666 15.3812 2.78801 15.5812C3.29751 15.7781 3.8788 15.9156 4.72906 15.9531C5.58225 15.9907 5.85428 15.9999 8.0266 15.9999C10.1989 15.9999 10.4708 15.9907 11.3241 15.9531C12.1742 15.9156 12.7587 15.7781 13.265 15.5812C14.3403 15.1655 15.1905 14.3153 15.6062 13.2401C15.803 12.7307 15.9406 12.1492 15.9781 11.2991C16.0155 10.4457 16.0249 10.1739 16.0249 8.00153C16.0249 5.82927 16.0218 5.55736 15.9843 4.70405ZM14.5435 11.2366C14.509 12.018 14.3778 12.4399 14.2684 12.7213C13.9995 13.4183 13.4463 13.9715 12.7493 14.2403C12.468 14.3497 12.043 14.481 11.2646 14.5153C10.4207 14.5529 10.1676 14.5622 8.0328 14.5622C5.89799 14.5622 5.64171 14.5529 4.80085 14.5153C4.01945 14.481 3.59749 14.3497 3.31619 14.2403C2.96932 14.1121 2.65359 13.9089 2.39731 13.6433C2.13163 13.3839 1.92847 13.0713 1.80027 12.7244C1.69087 12.4431 1.55962 12.018 1.52531 11.2397C1.48771 10.3958 1.47843 10.1426 1.47843 8.0078C1.47843 5.87297 1.48771 5.6167 1.52531 4.77596C1.55962 3.99455 1.69087 3.5726 1.80027 3.29129C1.92847 2.9443 2.13163 2.62869 2.40049 2.37229C2.65981 2.10661 2.97237 1.90345 3.31937 1.77537C3.60067 1.66597 4.0258 1.53473 4.80403 1.50029C5.64794 1.46281 5.90116 1.45341 8.03587 1.45341C10.1739 1.45341 10.4269 1.46281 11.2678 1.50029C12.0492 1.53473 12.4711 1.66597 12.7525 1.77537C13.0993 1.90345 13.4151 2.10661 13.6713 2.37229C13.937 2.63174 14.1402 2.9443 14.2684 3.29129C14.3778 3.5726 14.509 3.99761 14.5435 4.77596C14.5809 5.61987 14.5903 5.87297 14.5903 8.0078C14.5903 10.1426 14.5809 10.3927 14.5435 11.2366Z" fill="black"/>
<path d="M8.0296 3.8913C5.76049 3.8913 3.91943 5.73224 3.91943 8.00148C3.91943 10.2707 5.76049 12.1117 8.0296 12.1117C10.2989 12.1117 12.1398 10.2707 12.1398 8.00148C12.1398 5.73224 10.2989 3.8913 8.0296 3.8913ZM8.0296 10.6677C6.55752 10.6677 5.36344 9.47368 5.36344 8.00148C5.36344 6.52926 6.55752 5.3353 8.0296 5.3353C9.5018 5.3353 10.6958 6.52926 10.6958 8.00148C10.6958 9.47368 9.5018 10.6677 8.0296 10.6677Z" fill="black"/>
<path d="M13.2621 3.72925C13.2621 4.25915 12.8324 4.68879 12.3024 4.68879C11.7725 4.68879 11.3429 4.25915 11.3429 3.72925C11.3429 3.19924 11.7725 2.76971 12.3024 2.76971C12.8324 2.76971 13.2621 3.19924 13.2621 3.72925Z" fill="black"/>
</g>
<defs>
<clipPath id="clip0_966_6">
<rect width="16" height="16" fill="white"/>
</clipPath>
</defs>
</svg>
