<svg width="248" height="87" viewBox="0 0 248 87" fill="none" xmlns="http://www.w3.org/2000/svg">
<rect width="248" height="87" fill="white"/>
<path d="M37.1854 59V35.1358H43.3044V38.0205C43.8872 36.8841 44.703 36.0391 45.752 35.4855C46.8301 34.9027 48.0976 34.6113 49.5545 34.6113C51.0989 34.6113 52.4829 34.9318 53.7067 35.5729C54.9305 36.1848 55.9212 37.0881 56.6788 38.2827C57.349 37.1755 58.3251 36.2868 59.6072 35.6166C60.8893 34.9464 62.3316 34.6113 63.9342 34.6113C65.5951 34.6113 67.0666 34.9901 68.3487 35.7477C69.6308 36.4762 70.6215 37.5251 71.3208 38.8946C72.0492 40.235 72.4135 41.823 72.4135 43.6587V59H65.8574V45.0574C65.8574 43.6005 65.4931 42.4786 64.7647 41.6919C64.0654 40.9052 63.1329 40.5118 61.9674 40.5118C60.8019 40.5118 59.8549 40.9052 59.1264 41.6919C58.4271 42.4786 58.0775 43.6005 58.0775 45.0574V59H51.5214V45.0574C51.5214 43.6005 51.1571 42.4786 50.4287 41.6919C49.7294 40.9052 48.7969 40.5118 47.6314 40.5118C46.4659 40.5118 45.5189 40.9052 44.7904 41.6919C44.0911 42.4786 43.7415 43.6005 43.7415 45.0574V59H37.1854ZM83.886 59.5245C82.0794 59.5245 80.5059 59.2185 79.1656 58.6066C77.8543 57.9656 76.8345 57.1206 76.106 56.0716C75.4067 54.9935 75.0571 53.7988 75.0571 52.4876C75.0571 50.7102 75.7273 49.2533 77.0676 48.1169C78.408 46.9513 80.2874 46.1209 82.7059 45.6256L90.1798 44.0521V43.2654C90.1798 42.3621 89.8447 41.6482 89.1745 41.1237C88.5044 40.5701 87.6156 40.2933 86.5084 40.2933C85.3429 40.2933 84.3085 40.6138 83.4052 41.2548C82.531 41.8667 81.9191 42.7117 81.5695 43.7899L75.9312 41.08C76.6305 39.0986 77.9272 37.5251 79.8212 36.3596C81.7443 35.1941 83.9734 34.6113 86.5084 34.6113C88.5481 34.6113 90.3255 34.9755 91.8407 35.704C93.385 36.4325 94.5797 37.4523 95.4247 38.7635C96.2988 40.0456 96.7359 41.5462 96.7359 43.2654V59H90.6169V56.8146C89.7136 57.7762 88.7083 58.4755 87.6011 58.9126C86.523 59.3205 85.2846 59.5245 83.886 59.5245ZM81.8317 52.4002C81.8317 53.1287 82.1085 53.6968 82.6621 54.1048C83.2158 54.5127 83.9588 54.7167 84.8912 54.7167C86.3773 54.7167 87.6302 54.2505 88.65 53.318C89.6699 52.3856 90.1798 51.2492 90.1798 49.9089V48.7725L83.886 50.1711C82.5165 50.4916 81.8317 51.2347 81.8317 52.4002ZM100.228 32.9941V26.438H106.784V32.9941H100.228ZM100.228 59V35.1358H106.784V59H100.228ZM111.155 59V26.438H117.711V59H111.155ZM135.456 59.5245C133.999 59.5245 132.63 59.2914 131.348 58.8252C130.095 58.3298 129.046 57.6305 128.201 56.7272V59H122.082V26.438H128.638V37.1463C130.328 35.4563 132.615 34.6113 135.5 34.6113C137.773 34.6113 139.812 35.1649 141.619 36.2722C143.455 37.3794 144.911 38.8801 145.99 40.774C147.068 42.6389 147.607 44.7368 147.607 47.0679C147.607 49.3698 147.068 51.4678 145.99 53.3618C144.941 55.2557 143.498 56.7564 141.663 57.8636C139.856 58.9709 137.787 59.5245 135.456 59.5245ZM134.669 53.624C136.476 53.624 137.947 53.0121 139.084 51.7883C140.249 50.5645 140.832 48.991 140.832 47.0679C140.832 45.1739 140.249 43.615 139.084 42.3912C137.947 41.1383 136.476 40.5118 134.669 40.5118C132.892 40.5118 131.435 41.1237 130.299 42.3475C129.191 43.5713 128.638 45.1448 128.638 47.0679C128.638 49.0202 129.191 50.6082 130.299 51.832C131.435 53.0267 132.892 53.624 134.669 53.624ZM162.131 59.5245C159.77 59.5245 157.614 58.9854 155.662 57.9073C153.739 56.8292 152.209 55.3577 151.073 53.4929C149.936 51.5989 149.368 49.4572 149.368 47.0679C149.368 44.6494 149.936 42.5078 151.073 40.6429C152.209 38.7781 153.739 37.3066 155.662 36.2285C157.614 35.1504 159.77 34.6113 162.131 34.6113C164.491 34.6113 166.632 35.1504 168.556 36.2285C170.508 37.3066 172.052 38.7781 173.189 40.6429C174.325 42.5078 174.893 44.6494 174.893 47.0679C174.893 49.4572 174.325 51.5989 173.189 53.4929C172.052 55.3577 170.508 56.8292 168.556 57.9073C166.632 58.9854 164.491 59.5245 162.131 59.5245ZM162.131 53.624C163.937 53.624 165.379 53.0121 166.458 51.7883C167.565 50.5645 168.118 48.991 168.118 47.0679C168.118 45.1739 167.565 43.615 166.458 42.3912C165.379 41.1383 163.937 40.5118 162.131 40.5118C160.353 40.5118 158.911 41.1383 157.804 42.3912C156.696 43.615 156.143 45.1739 156.143 47.0679C156.143 48.991 156.696 50.5645 157.804 51.7883C158.911 53.0121 160.353 53.624 162.131 53.624ZM175.177 59L183.569 47.0242L175.133 35.1358H182.738L187.415 41.9541L192.092 35.1358H199.697L191.261 47.0242L199.609 59H192.004L187.415 52.138L182.826 59H175.177Z" fill="#181818"/>
<path d="M202.768 59V52.4439H209.324V59H202.768Z" fill="#F95252"/>
</svg>
