<svg width="127" height="25" viewBox="0 0 127 25" fill="none" xmlns="http://www.w3.org/2000/svg">
<path d="M20.1841 6.14391C17.8161 6.14391 15.8641 7.23191 14.8721 8.83191C13.7521 7.07191 11.8961 6.14391 9.6561 6.14391C7.5441 6.14391 5.9121 6.97591 5.0801 8.63991V6.52791H0.600098V23.9999H5.4001V13.7919C5.4001 11.6479 6.5521 10.4639 8.2481 10.4639C9.9441 10.4639 11.0961 11.6479 11.0961 13.7919V23.9999H15.8961V13.7919C15.8961 11.6479 17.0481 10.4639 18.7441 10.4639C20.4401 10.4639 21.5921 11.6479 21.5921 13.7919V23.9999H26.3921V12.7679C26.3921 8.73591 23.8321 6.14391 20.1841 6.14391Z" fill="#181818"/>
<path d="M36.7116 6.14391C32.9996 6.14391 29.9916 7.99991 28.9676 10.8799L33.0956 12.8639C33.6076 11.2959 35.0156 10.3039 36.7116 10.3039C38.3116 10.3039 39.3996 11.1679 39.3996 12.4799V13.0559L33.9276 14.2079C30.3756 14.9439 28.3276 16.6399 28.3276 19.2319C28.3276 22.1439 30.8236 24.3839 34.7916 24.3839C36.8076 24.3839 38.4076 23.7759 39.7196 22.3999V23.9999H44.1996V12.4799C44.1996 8.73591 41.1596 6.14391 36.7116 6.14391ZM35.5276 20.8639C34.1516 20.8639 33.2876 20.2239 33.2876 19.1679C33.2876 18.3679 33.7996 17.7599 34.7916 17.5359L39.3996 16.5119V17.3439C39.3996 19.2959 37.7036 20.8639 35.5276 20.8639Z" fill="#181818"/>
<path d="M46.7563 4.95991H51.5564V0.159912H46.7563V4.95991ZM46.7563 23.9999H51.5564V6.52791H46.7563V23.9999Z" fill="#181818"/>
<path d="M54.7563 23.9999H59.5564V0.159912H54.7563V23.9999Z" fill="#181818"/>
<path d="M72.5804 6.14391C70.5004 6.14391 68.7404 6.81591 67.5564 7.99991V0.159912H62.7563V23.9999H67.2364V22.3359C68.4844 23.6799 70.4043 24.3839 72.5483 24.3839C77.6363 24.3839 81.4444 20.3519 81.4444 15.2639C81.4444 10.1439 77.5404 6.14391 72.5804 6.14391ZM71.9724 20.0639C69.3804 20.0639 67.5564 18.1119 67.5564 15.2639C67.5564 12.4479 69.3804 10.4639 71.9724 10.4639C74.5964 10.4639 76.4844 12.4799 76.4844 15.2639C76.4844 18.0799 74.5964 20.0639 71.9724 20.0639Z" fill="#181818"/>
<path d="M92.0779 24.3839C97.2619 24.3839 101.422 20.5439 101.422 15.2639C101.422 9.98391 97.2619 6.14391 92.0779 6.14391C86.8939 6.14391 82.7338 9.98391 82.7338 15.2639C82.7338 20.5439 86.8939 24.3839 92.0779 24.3839ZM92.0779 20.0639C89.4539 20.0639 87.6938 18.0799 87.6938 15.2639C87.6938 12.4799 89.4539 10.4639 92.0779 10.4639C94.7019 10.4639 96.4619 12.4799 96.4619 15.2639C96.4619 18.0799 94.7019 20.0639 92.0779 20.0639Z" fill="#181818"/>
<path d="M119.582 6.52791H114.014L110.59 11.5199L107.166 6.52791H101.598L107.774 15.2319L101.63 23.9999H107.23L110.59 18.9759L113.95 23.9999H119.518L113.406 15.2319L119.582 6.52791Z" fill="#181818"/>
<path d="M121.83 23.9999H126.63V19.1999H121.83V23.9999Z" fill="#181818"/>
<path d="M122 24H126.8V19.2H122V24Z" fill="#F95252"/>
</svg>
